<?xml version="1.0" encoding="UTF-8" standalone="no"?>
<!DOCTYPE svg PUBLIC "-//W3C//DTD SVG 1.1//EN"
 "http://www.w3.org/Graphics/SVG/1.1/DTD/svg11.dtd">
<!-- Generated by graphviz version 14.1.1 (20251213.1925)
 -->
<!-- Title: InheritanceTree Pages: 1 -->
<svg width="336pt" height="213pt"
 viewBox="0.00 0.00 336.00 213.00" xmlns="http://www.w3.org/2000/svg" xmlns:xlink="http://www.w3.org/1999/xlink">
<g id="graph0" class="graph" transform="scale(1 1) rotate(0) translate(4 208.5)">
<title>InheritanceTree</title>
<polygon fill="white" stroke="none" points="-4,4 -4,-208.5 331.5,-208.5 331.5,4 -4,4"/>
<text xml:space="preserve" text-anchor="middle" x="163.75" y="-7.2" font-family="Times New Roman,serif" font-size="14.00">simple_env &#45; Inheritance Hierarchy</text>
<!-- SIMPLE_ENV -->
<g id="node1" class="node">
<title>SIMPLE_ENV</title>
<path fill="none" stroke="black" d="M87.25,-60.5C87.25,-60.5 12,-60.5 12,-60.5 6,-60.5 0,-54.5 0,-48.5 0,-48.5 0,-36.5 0,-36.5 0,-30.5 6,-24.5 12,-24.5 12,-24.5 87.25,-24.5 87.25,-24.5 93.25,-24.5 99.25,-30.5 99.25,-36.5 99.25,-36.5 99.25,-48.5 99.25,-48.5 99.25,-54.5 93.25,-60.5 87.25,-60.5"/>
<text xml:space="preserve" text-anchor="middle" x="49.62" y="-37.45" font-family="Times New Roman,serif" font-size="14.00">SIMPLE_ENV</text>
</g>
<!-- LIB_TESTS -->
<g id="node2" class="node">
<title>LIB_TESTS</title>
<path fill="none" stroke="black" d="M79.75,-132.5C79.75,-132.5 19.5,-132.5 19.5,-132.5 13.5,-132.5 7.5,-126.5 7.5,-120.5 7.5,-120.5 7.5,-108.5 7.5,-108.5 7.5,-102.5 13.5,-96.5 19.5,-96.5 19.5,-96.5 79.75,-96.5 79.75,-96.5 85.75,-96.5 91.75,-102.5 91.75,-108.5 91.75,-108.5 91.75,-120.5 91.75,-120.5 91.75,-126.5 85.75,-132.5 79.75,-132.5"/>
<text xml:space="preserve" text-anchor="middle" x="49.62" y="-109.45" font-family="Times New Roman,serif" font-size="14.00">LIB_TESTS</text>
</g>
<!-- TEST_SET_BASE -->
<g id="node3" class="node">
<title>TEST_SET_BASE</title>
<path fill="none" stroke="black" d="M315.5,-132.5C315.5,-132.5 219.25,-132.5 219.25,-132.5 213.25,-132.5 207.25,-126.5 207.25,-120.5 207.25,-120.5 207.25,-108.5 207.25,-108.5 207.25,-102.5 213.25,-96.5 219.25,-96.5 219.25,-96.5 315.5,-96.5 315.5,-96.5 321.5,-96.5 327.5,-102.5 327.5,-108.5 327.5,-108.5 327.5,-120.5 327.5,-120.5 327.5,-126.5 321.5,-132.5 315.5,-132.5"/>
<text xml:space="preserve" text-anchor="middle" x="267.38" y="-109.45" font-family="Times New Roman,serif" font-size="14.00">TEST_SET_BASE</text>
</g>
<!-- LIB_TESTS&#45;&gt;TEST_SET_BASE -->
<g id="edge1" class="edge">
<title>LIB_TESTS&#45;&gt;TEST_SET_BASE</title>
<path fill="none" stroke="black" d="M92.13,-114.5C92.13,-114.5 195.34,-114.5 195.34,-114.5"/>
<polygon fill="none" stroke="black" points="195.34,-118 205.34,-114.5 195.34,-111 195.34,-118"/>
</g>
<!-- TEST_APP -->
<g id="node4" class="node">
<title>TEST_APP</title>
<path fill="none" stroke="black" d="M77.5,-204.5C77.5,-204.5 21.75,-204.5 21.75,-204.5 15.75,-204.5 9.75,-198.5 9.75,-192.5 9.75,-192.5 9.75,-180.5 9.75,-180.5 9.75,-174.5 15.75,-168.5 21.75,-168.5 21.75,-168.5 77.5,-168.5 77.5,-168.5 83.5,-168.5 89.5,-174.5 89.5,-180.5 89.5,-180.5 89.5,-192.5 89.5,-192.5 89.5,-198.5 83.5,-204.5 77.5,-204.5"/>
<text xml:space="preserve" text-anchor="middle" x="49.62" y="-181.45" font-family="Times New Roman,serif" font-size="14.00">TEST_APP</text>
</g>
</g>
</svg>
