<?xml version="1.0" encoding="UTF-8" standalone="no"?>
<!DOCTYPE svg PUBLIC "-//W3C//DTD SVG 1.1//EN"
 "http://www.w3.org/Graphics/SVG/1.1/DTD/svg11.dtd">
<!-- Generated by graphviz version 14.1.1 (20251213.1925)
 -->
<!-- Title: ContractCoverage Pages: 1 -->
<svg width="816pt" height="675pt"
 viewBox="48.00 48.00 768.00 627.00" xmlns="http://www.w3.org/2000/svg" xmlns:xlink="http://www.w3.org/1999/xlink">
<g id="graph0" class="graph" transform="scale(0.82717 0.82717) rotate(0) translate(62.03 753.78)">
<title>ContractCoverage</title>
<polygon fill="white" stroke="none" points="-4,4 -4,-695.75 866.44,-695.75 866.44,4 -4,4"/>
<text xml:space="preserve" text-anchor="middle" x="431.22" y="-678.25" font-family="Times New Roman,serif" font-size="10.00">simple_env &#45; Contract Coverage</text>
<g id="clust1" class="cluster">
<title>cluster_SIMPLE_ENV</title>
<polygon fill="white" stroke="black" points="0,-36 0,-612.5 540,-612.5 540,-36 0,-36"/>
<text xml:space="preserve" text-anchor="middle" x="270" y="-595.2" font-family="Times New Roman,serif" font-size="14.00">SIMPLE_ENV</text>
</g>
<g id="clust2" class="cluster">
<title>cluster_LIB_TESTS</title>
<polygon fill="white" stroke="black" points="611.56,0 611.56,-270.5 862.44,-270.5 862.44,0 611.56,0"/>
<text xml:space="preserve" text-anchor="middle" x="737" y="-253.2" font-family="Times New Roman,serif" font-size="14.00">LIB_TESTS</text>
</g>
<g id="clust3" class="cluster">
<title>cluster_TEST_APP</title>
<polygon fill="white" stroke="black" points="612,-612 612,-672.5 676,-672.5 676,-612 612,-612"/>
<text xml:space="preserve" text-anchor="middle" x="644" y="-655.2" font-family="Times New Roman,serif" font-size="14.00">TEST_APP</text>
</g>
<g id="clust4" class="cluster">
<title>cluster_legend</title>
<polygon fill="lightyellow" stroke="black" points="611.62,-360.12 611.62,-548.38 824.37,-548.38 824.37,-360.12 611.62,-360.12"/>
<text xml:space="preserve" text-anchor="middle" x="718" y="-534.88" font-family="Times New Roman,serif" font-size="10.00">Legend</text>
</g>
<!-- SIMPLE_ENV_get -->
<g id="node1" class="node">
<title>SIMPLE_ENV_get</title>
<polygon fill="lightgray" stroke="black" points="276,-588 222,-588 222,-552 276,-552 276,-588"/>
<text xml:space="preserve" text-anchor="middle" x="249" y="-566.12" font-family="Times New Roman,serif" font-size="10.00">get</text>
</g>
<!-- SIMPLE_ENV_value -->
<g id="node2" class="node">
<title>SIMPLE_ENV_value</title>
<polygon fill="lightgray" stroke="black" points="450,-72 396,-72 396,-36 450,-36 450,-72"/>
<text xml:space="preserve" text-anchor="middle" x="423" y="-50.12" font-family="Times New Roman,serif" font-size="10.00">value</text>
</g>
<!-- SIMPLE_ENV_read -->
<g id="node3" class="node">
<title>SIMPLE_ENV_read</title>
<polygon fill="lightgray" stroke="black" points="138,-582 84,-582 84,-546 138,-546 138,-582"/>
<text xml:space="preserve" text-anchor="middle" x="111" y="-560.12" font-family="Times New Roman,serif" font-size="10.00">read</text>
</g>
<!-- SIMPLE_ENV_fetch -->
<g id="node4" class="node">
<title>SIMPLE_ENV_fetch</title>
<polygon fill="lightgray" stroke="black" points="540,-432 486,-432 486,-396 540,-396 540,-432"/>
<text xml:space="preserve" text-anchor="middle" x="513" y="-410.12" font-family="Times New Roman,serif" font-size="10.00">fetch</text>
</g>
<!-- SIMPLE_ENV_lookup -->
<g id="node5" class="node">
<title>SIMPLE_ENV_lookup</title>
<polygon fill="lightgray" stroke="black" points="54,-288 0,-288 0,-252 54,-252 54,-288"/>
<text xml:space="preserve" text-anchor="middle" x="27" y="-266.12" font-family="Times New Roman,serif" font-size="10.00">lookup</text>
</g>
<!-- SIMPLE_ENV_name_not_empty -->
<g id="node6" class="node">
<title>SIMPLE_ENV_name_not_empty</title>
<polygon fill="lightgray" stroke="black" points="350.62,-192 263.37,-192 263.37,-156 350.62,-156 350.62,-192"/>
<text xml:space="preserve" text-anchor="middle" x="307" y="-170.12" font-family="Times New Roman,serif" font-size="10.00">name_not_empty</text>
</g>
<!-- SIMPLE_ENV_a_name -->
<g id="node7" class="node">
<title>SIMPLE_ENV_a_name</title>
<polygon fill="lightgray" stroke="black" points="534,-156 480,-156 480,-120 534,-120 534,-156"/>
<text xml:space="preserve" text-anchor="middle" x="507" y="-134.12" font-family="Times New Roman,serif" font-size="10.00">a_name</text>
</g>
<!-- SIMPLE_ENV_is_empty -->
<g id="node8" class="node">
<title>SIMPLE_ENV_is_empty</title>
<polygon fill="khaki" stroke="black" points="504,-372 450,-372 450,-336 504,-336 504,-372"/>
<text xml:space="preserve" text-anchor="middle" x="477" y="-350.12" font-family="Times New Roman,serif" font-size="10.00">is_empty</text>
</g>
<!-- SIMPLE_ENV_item -->
<g id="node9" class="node">
<title>SIMPLE_ENV_item</title>
<polygon fill="khaki" stroke="black" points="216,-528 162,-528 162,-492 216,-492 216,-528"/>
<text xml:space="preserve" text-anchor="middle" x="189" y="-506.12" font-family="Times New Roman,serif" font-size="10.00">item</text>
</g>
<!-- SIMPLE_ENV_has -->
<g id="node10" class="node">
<title>SIMPLE_ENV_has</title>
<polygon fill="lightgray" stroke="black" points="372,-528 318,-528 318,-492 372,-492 372,-528"/>
<text xml:space="preserve" text-anchor="middle" x="345" y="-506.12" font-family="Times New Roman,serif" font-size="10.00">has</text>
</g>
<!-- SIMPLE_ENV_exists -->
<g id="node11" class="node">
<title>SIMPLE_ENV_exists</title>
<polygon fill="lightgray" stroke="black" points="372,-72 318,-72 318,-36 372,-36 372,-72"/>
<text xml:space="preserve" text-anchor="middle" x="345" y="-50.12" font-family="Times New Roman,serif" font-size="10.00">exists</text>
</g>
<!-- SIMPLE_ENV_is_defined -->
<g id="node12" class="node">
<title>SIMPLE_ENV_is_defined</title>
<polygon fill="lightgray" stroke="black" points="142.37,-408 83.62,-408 83.62,-372 142.37,-372 142.37,-408"/>
<text xml:space="preserve" text-anchor="middle" x="113" y="-386.12" font-family="Times New Roman,serif" font-size="10.00">is_defined</text>
</g>
<!-- SIMPLE_ENV_contains -->
<g id="node13" class="node">
<title>SIMPLE_ENV_contains</title>
<polygon fill="khaki" stroke="black" points="90,-126 36,-126 36,-90 90,-90 90,-126"/>
<text xml:space="preserve" text-anchor="middle" x="63" y="-104.12" font-family="Times New Roman,serif" font-size="10.00">contains</text>
</g>
<!-- SIMPLE_ENV_set -->
<g id="node14" class="node">
<title>SIMPLE_ENV_set</title>
<polygon fill="lightgray" stroke="black" points="60,-582 6,-582 6,-546 60,-546 60,-582"/>
<text xml:space="preserve" text-anchor="middle" x="33" y="-560.12" font-family="Times New Roman,serif" font-size="10.00">set</text>
</g>
<!-- SIMPLE_ENV_put_value -->
<g id="node15" class="node">
<title>SIMPLE_ENV_put_value</title>
<polygon fill="lightgray" stroke="black" points="494.62,-252 437.37,-252 437.37,-216 494.62,-216 494.62,-252"/>
<text xml:space="preserve" text-anchor="middle" x="466" y="-230.12" font-family="Times New Roman,serif" font-size="10.00">put_value</text>
</g>
<!-- SIMPLE_ENV_store -->
<g id="node16" class="node">
<title>SIMPLE_ENV_store</title>
<polygon fill="lightgray" stroke="black" points="450,-132 396,-132 396,-96 450,-96 450,-132"/>
<text xml:space="preserve" text-anchor="middle" x="423" y="-110.12" font-family="Times New Roman,serif" font-size="10.00">store</text>
</g>
<!-- SIMPLE_ENV_define -->
<g id="node17" class="node">
<title>SIMPLE_ENV_define</title>
<polygon fill="palegreen" stroke="black" points="132,-288 78,-288 78,-252 132,-252 132,-288"/>
<text xml:space="preserve" text-anchor="middle" x="105" y="-266.12" font-family="Times New Roman,serif" font-size="10.00">define</text>
</g>
<!-- SIMPLE_ENV_put -->
<g id="node18" class="node">
<title>SIMPLE_ENV_put</title>
<polygon fill="lightgray" stroke="black" points="102,-522 48,-522 48,-486 102,-486 102,-522"/>
<text xml:space="preserve" text-anchor="middle" x="75" y="-500.12" font-family="Times New Roman,serif" font-size="10.00">put</text>
</g>
<!-- SIMPLE_ENV_unset -->
<g id="node19" class="node">
<title>SIMPLE_ENV_unset</title>
<polygon fill="lightgray" stroke="black" points="294,-132 240,-132 240,-96 294,-96 294,-132"/>
<text xml:space="preserve" text-anchor="middle" x="267" y="-110.12" font-family="Times New Roman,serif" font-size="10.00">unset</text>
</g>
<!-- SIMPLE_ENV_remove -->
<g id="node20" class="node">
<title>SIMPLE_ENV_remove</title>
<polygon fill="lightgray" stroke="black" points="372,-132 318,-132 318,-96 372,-96 372,-132"/>
<text xml:space="preserve" text-anchor="middle" x="345" y="-110.12" font-family="Times New Roman,serif" font-size="10.00">remove</text>
</g>
<!-- SIMPLE_ENV_delete_var -->
<g id="node21" class="node">
<title>SIMPLE_ENV_delete_var</title>
<polygon fill="lightgray" stroke="black" points="154.37,-348 95.62,-348 95.62,-312 154.37,-312 154.37,-348"/>
<text xml:space="preserve" text-anchor="middle" x="125" y="-326.12" font-family="Times New Roman,serif" font-size="10.00">delete_var</text>
</g>
<!-- SIMPLE_ENV_clear_var -->
<g id="node22" class="node">
<title>SIMPLE_ENV_clear_var</title>
<polygon fill="palegreen" stroke="black" points="432,-588 378,-588 378,-552 432,-552 432,-588"/>
<text xml:space="preserve" text-anchor="middle" x="405" y="-566.12" font-family="Times New Roman,serif" font-size="10.00">clear_var</text>
</g>
<!-- SIMPLE_ENV_expand -->
<g id="node23" class="node">
<title>SIMPLE_ENV_expand</title>
<polygon fill="lightgray" stroke="black" points="294,-528 240,-528 240,-492 294,-492 294,-528"/>
<text xml:space="preserve" text-anchor="middle" x="267" y="-506.12" font-family="Times New Roman,serif" font-size="10.00">expand</text>
</g>
<!-- SIMPLE_ENV_expand_variables -->
<g id="node24" class="node">
<title>SIMPLE_ENV_expand_variables</title>
<polygon fill="lightgray" stroke="black" points="316,-468 228,-468 228,-432 316,-432 316,-468"/>
<text xml:space="preserve" text-anchor="middle" x="272" y="-446.12" font-family="Times New Roman,serif" font-size="10.00">expand_variables</text>
</g>
<!-- SIMPLE_ENV_substitute -->
<g id="node25" class="node">
<title>SIMPLE_ENV_substitute</title>
<polygon fill="lightgray" stroke="black" points="294.87,-72 239.12,-72 239.12,-36 294.87,-36 294.87,-72"/>
<text xml:space="preserve" text-anchor="middle" x="267" y="-50.12" font-family="Times New Roman,serif" font-size="10.00">substitute</text>
</g>
<!-- SIMPLE_ENV_resolve -->
<g id="node26" class="node">
<title>SIMPLE_ENV_resolve</title>
<polygon fill="lightgray" stroke="black" points="168,-126 114,-126 114,-90 168,-90 168,-126"/>
<text xml:space="preserve" text-anchor="middle" x="141" y="-104.12" font-family="Times New Roman,serif" font-size="10.00">resolve</text>
</g>
<!-- SIMPLE_ENV_string_not_empty -->
<g id="node27" class="node">
<title>SIMPLE_ENV_string_not_empty</title>
<polygon fill="lightgray" stroke="black" points="244.38,-246 155.62,-246 155.62,-210 244.38,-210 244.38,-246"/>
<text xml:space="preserve" text-anchor="middle" x="200" y="-224.12" font-family="Times New Roman,serif" font-size="10.00">string_not_empty</text>
</g>
<!-- SIMPLE_ENV_a_string -->
<g id="node28" class="node">
<title>SIMPLE_ENV_a_string</title>
<polygon fill="lightgray" stroke="black" points="510,-546 456,-546 456,-510 510,-510 510,-546"/>
<text xml:space="preserve" text-anchor="middle" x="483" y="-524.12" font-family="Times New Roman,serif" font-size="10.00">a_string</text>
</g>
<!-- SIMPLE_ENV_all_names -->
<g id="node29" class="node">
<title>SIMPLE_ENV_all_names</title>
<polygon fill="lightgray" stroke="black" points="74.62,-348 17.37,-348 17.37,-312 74.62,-312 74.62,-348"/>
<text xml:space="preserve" text-anchor="middle" x="46" y="-326.12" font-family="Times New Roman,serif" font-size="10.00">all_names</text>
</g>
<!-- SIMPLE_ENV_list -->
<g id="node30" class="node">
<title>SIMPLE_ENV_list</title>
<polygon fill="lightgray" stroke="black" points="72,-228 18,-228 18,-192 72,-192 72,-228"/>
<text xml:space="preserve" text-anchor="middle" x="45" y="-206.12" font-family="Times New Roman,serif" font-size="10.00">list</text>
</g>
<!-- SIMPLE_ENV_keys -->
<g id="node31" class="node">
<title>SIMPLE_ENV_keys</title>
<polygon fill="lightgray" stroke="black" points="528,-96 474,-96 474,-60 528,-60 528,-96"/>
<text xml:space="preserve" text-anchor="middle" x="501" y="-74.12" font-family="Times New Roman,serif" font-size="10.00">keys</text>
</g>
<!-- SIMPLE_ENV_variables -->
<g id="node32" class="node">
<title>SIMPLE_ENV_variables</title>
<polygon fill="khaki" stroke="black" points="60,-462 6,-462 6,-426 60,-426 60,-462"/>
<text xml:space="preserve" text-anchor="middle" x="33" y="-440.12" font-family="Times New Roman,serif" font-size="10.00">variables</text>
</g>
<!-- SIMPLE_ENV_names_with_prefix -->
<g id="node33" class="node">
<title>SIMPLE_ENV_names_with_prefix</title>
<polygon fill="lightgray" stroke="black" points="370.38,-366 275.62,-366 275.62,-330 370.38,-330 370.38,-366"/>
<text xml:space="preserve" text-anchor="middle" x="323" y="-344.12" font-family="Times New Roman,serif" font-size="10.00">names_with_prefix</text>
</g>
<!-- SIMPLE_ENV_prefix_not_empty -->
<g id="node34" class="node">
<title>SIMPLE_ENV_prefix_not_empty</title>
<polygon fill="lightgray" stroke="black" points="250.75,-408 161.25,-408 161.25,-372 250.75,-372 250.75,-408"/>
<text xml:space="preserve" text-anchor="middle" x="206" y="-386.12" font-family="Times New Roman,serif" font-size="10.00">prefix_not_empty</text>
</g>
<!-- SIMPLE_ENV_a_prefix -->
<g id="node35" class="node">
<title>SIMPLE_ENV_a_prefix</title>
<polygon fill="lightgray" stroke="black" points="540,-312 486,-312 486,-276 540,-276 540,-312"/>
<text xml:space="preserve" text-anchor="middle" x="513" y="-290.12" font-family="Times New Roman,serif" font-size="10.00">a_prefix</text>
</g>
<!-- SIMPLE_ENV_last_operation_succeeded -->
<g id="node36" class="node">
<title>SIMPLE_ENV_last_operation_succeeded</title>
<polygon fill="lightgray" stroke="black" points="294.88,-306 173.12,-306 173.12,-270 294.88,-270 294.88,-306"/>
<text xml:space="preserve" text-anchor="middle" x="234" y="-284.12" font-family="Times New Roman,serif" font-size="10.00">last_operation_succeeded</text>
</g>
<!-- SIMPLE_ENV_pointer_to_string -->
<g id="node37" class="node">
<title>SIMPLE_ENV_pointer_to_string</title>
<polygon fill="lightcoral" stroke="black" points="458.62,-192 371.38,-192 371.38,-156 458.62,-156 458.62,-192"/>
<text xml:space="preserve" text-anchor="middle" x="415" y="-170.12" font-family="Times New Roman,serif" font-size="10.00">pointer_to_string</text>
</g>
<!-- SIMPLE_ENV_c_se_get_env -->
<g id="node38" class="node">
<title>SIMPLE_ENV_c_se_get_env</title>
<polygon fill="lightcoral" stroke="black" points="462.12,-312 389.87,-312 389.87,-276 462.12,-276 462.12,-312"/>
<text xml:space="preserve" text-anchor="middle" x="426" y="-290.12" font-family="Times New Roman,serif" font-size="10.00">c_se_get_env</text>
</g>
<!-- SIMPLE_ENV_c_se_set_env -->
<g id="node39" class="node">
<title>SIMPLE_ENV_c_se_set_env</title>
<polygon fill="lightcoral" stroke="black" points="466.38,-486 395.62,-486 395.62,-450 466.38,-450 466.38,-486"/>
<text xml:space="preserve" text-anchor="middle" x="431" y="-464.12" font-family="Times New Roman,serif" font-size="10.00">c_se_set_env</text>
</g>
<!-- SIMPLE_ENV_c_se_unset_env -->
<g id="node40" class="node">
<title>SIMPLE_ENV_c_se_unset_env</title>
<polygon fill="lightcoral" stroke="black" points="176.62,-186 95.37,-186 95.37,-150 176.62,-150 176.62,-186"/>
<text xml:space="preserve" text-anchor="middle" x="136" y="-164.12" font-family="Times New Roman,serif" font-size="10.00">c_se_unset_env</text>
</g>
<!-- SIMPLE_ENV_c_se_expand_env -->
<g id="node41" class="node">
<title>SIMPLE_ENV_c_se_expand_env</title>
<polygon fill="lightcoral" stroke="black" points="424.75,-426 335.25,-426 335.25,-390 424.75,-390 424.75,-426"/>
<text xml:space="preserve" text-anchor="middle" x="380" y="-404.12" font-family="Times New Roman,serif" font-size="10.00">c_se_expand_env</text>
</g>
<!-- SIMPLE_ENV_c_se_env_exists -->
<g id="node42" class="node">
<title>SIMPLE_ENV_c_se_env_exists</title>
<polygon fill="lightcoral" stroke="black" points="208.37,-468 125.62,-468 125.62,-432 208.37,-432 208.37,-468"/>
<text xml:space="preserve" text-anchor="middle" x="167" y="-446.12" font-family="Times New Roman,serif" font-size="10.00">c_se_env_exists</text>
</g>
<!-- SIMPLE_ENV_c_free -->
<g id="node43" class="node">
<title>SIMPLE_ENV_c_free</title>
<polygon fill="lightcoral" stroke="black" points="354,-588 300,-588 300,-552 354,-552 354,-588"/>
<text xml:space="preserve" text-anchor="middle" x="327" y="-566.12" font-family="Times New Roman,serif" font-size="10.00">c_free</text>
</g>
<!-- SIMPLE_ENV_c_se_get_all_names -->
<g id="node44" class="node">
<title>SIMPLE_ENV_c_se_get_all_names</title>
<polygon fill="lightgray" stroke="black" points="416.25,-252 317.75,-252 317.75,-216 416.25,-216 416.25,-252"/>
<text xml:space="preserve" text-anchor="middle" x="367" y="-230.12" font-family="Times New Roman,serif" font-size="10.00">c_se_get_all_names</text>
</g>
<!-- LIB_TESTS_test_get_path -->
<g id="node45" class="node">
<title>LIB_TESTS_test_get_path</title>
<polygon fill="lightcoral" stroke="black" points="862.44,-216 790.94,-216 790.94,-180 862.44,-180 862.44,-216"/>
<text xml:space="preserve" text-anchor="middle" x="826.69" y="-194.12" font-family="Times New Roman,serif" font-size="10.00">test_get_path</text>
</g>
<!-- LIB_TESTS_test_get_nonexistent -->
<g id="node46" class="node">
<title>LIB_TESTS_test_get_nonexistent</title>
<polygon fill="lightcoral" stroke="black" points="742.44,-96 640.94,-96 640.94,-60 742.44,-60 742.44,-96"/>
<text xml:space="preserve" text-anchor="middle" x="691.69" y="-74.12" font-family="Times New Roman,serif" font-size="10.00">test_get_nonexistent</text>
</g>
<!-- LIB_TESTS_test_has_path -->
<g id="node47" class="node">
<title>LIB_TESTS_test_has_path</title>
<polygon fill="lightcoral" stroke="black" points="683.81,-36 611.56,-36 611.56,0 683.81,0 683.81,-36"/>
<text xml:space="preserve" text-anchor="middle" x="647.69" y="-14.12" font-family="Times New Roman,serif" font-size="10.00">test_has_path</text>
</g>
<!-- LIB_TESTS_test_has_nonexistent -->
<g id="node48" class="node">
<title>LIB_TESTS_test_has_nonexistent</title>
<polygon fill="lightcoral" stroke="black" points="833.81,-156 731.56,-156 731.56,-120 833.81,-120 833.81,-156"/>
<text xml:space="preserve" text-anchor="middle" x="782.69" y="-134.12" font-family="Times New Roman,serif" font-size="10.00">test_has_nonexistent</text>
</g>
<!-- LIB_TESTS_test_set_and_get -->
<g id="node49" class="node">
<title>LIB_TESTS_test_set_and_get</title>
<polygon fill="lightcoral" stroke="black" points="852.19,-48 767.19,-48 767.19,-12 852.19,-12 852.19,-48"/>
<text xml:space="preserve" text-anchor="middle" x="809.69" y="-26.12" font-family="Times New Roman,serif" font-size="10.00">test_set_and_get</text>
</g>
<!-- LIB_TESTS_test_unset -->
<g id="node50" class="node">
<title>LIB_TESTS_test_unset</title>
<polygon fill="lightcoral" stroke="black" points="680.31,-246 623.06,-246 623.06,-210 680.31,-210 680.31,-246"/>
<text xml:space="preserve" text-anchor="middle" x="651.69" y="-224.12" font-family="Times New Roman,serif" font-size="10.00">test_unset</text>
</g>
<!-- LIB_TESTS_test_expand -->
<g id="node51" class="node">
<title>LIB_TESTS_test_expand</title>
<polygon fill="lightcoral" stroke="black" points="766.44,-246 700.94,-246 700.94,-210 766.44,-210 766.44,-246"/>
<text xml:space="preserve" text-anchor="middle" x="733.69" y="-224.12" font-family="Times New Roman,serif" font-size="10.00">test_expand</text>
</g>
<!-- LIB_TESTS_test_item_alias -->
<g id="node52" class="node">
<title>LIB_TESTS_test_item_alias</title>
<polygon fill="lightcoral" stroke="black" points="706.44,-186 628.94,-186 628.94,-150 706.44,-150 706.44,-186"/>
<text xml:space="preserve" text-anchor="middle" x="667.69" y="-164.12" font-family="Times New Roman,serif" font-size="10.00">test_item_alias</text>
</g>
<!-- TEST_APP_make -->
<g id="node53" class="node">
<title>TEST_APP_make</title>
<polygon fill="lightcoral" stroke="black" points="671,-648 617,-648 617,-612 671,-612 671,-648"/>
<text xml:space="preserve" text-anchor="middle" x="644" y="-626.12" font-family="Times New Roman,serif" font-size="10.00">make</text>
</g>
<!-- legend_full -->
<g id="node54" class="node">
<title>legend_full</title>
<polygon fill="palegreen" stroke="black" points="813.88,-465.12 699.62,-465.12 699.62,-424.12 813.88,-424.12 813.88,-465.12"/>
<text xml:space="preserve" text-anchor="middle" x="756.75" y="-447.82" font-family="Times New Roman,serif" font-size="14.00">Full Contract</text>
<text xml:space="preserve" text-anchor="middle" x="756.75" y="-431.32" font-family="Times New Roman,serif" font-size="14.00">(require + ensure)</text>
</g>
<!-- legend_partial -->
<g id="node55" class="node">
<title>legend_partial</title>
<polygon fill="khaki" stroke="black" points="824.38,-401.12 707.12,-401.12 707.12,-360.12 824.38,-360.12 824.38,-401.12"/>
<text xml:space="preserve" text-anchor="middle" x="765.75" y="-383.82" font-family="Times New Roman,serif" font-size="14.00">Partial Contract</text>
<text xml:space="preserve" text-anchor="middle" x="765.75" y="-367.32" font-family="Times New Roman,serif" font-size="14.00">(require or ensure)</text>
</g>
<!-- legend_none -->
<g id="node56" class="node">
<title>legend_none</title>
<polygon fill="lightcoral" stroke="black" points="806.12,-523.62 723.37,-523.62 723.37,-487.62 806.12,-487.62 806.12,-523.62"/>
<text xml:space="preserve" text-anchor="middle" x="764.75" y="-500.57" font-family="Times New Roman,serif" font-size="14.00">No Contract</text>
</g>
<!-- legend_attr -->
<g id="node57" class="node">
<title>legend_attr</title>
<polygon fill="lightgray" stroke="black" points="700.12,-529.12 635.38,-529.12 635.38,-488.12 700.12,-488.12 700.12,-529.12"/>
<text xml:space="preserve" text-anchor="middle" x="667.75" y="-511.82" font-family="Times New Roman,serif" font-size="14.00">Attribute</text>
<text xml:space="preserve" text-anchor="middle" x="667.75" y="-495.32" font-family="Times New Roman,serif" font-size="14.00">(n/a)</text>
</g>
<!-- legend_stats -->
<g id="node58" class="node">
<title>legend_stats</title>
<polygon fill="white" stroke="black" points="671.88,-467.12 611.62,-467.12 611.62,-360.12 677.88,-360.12 677.88,-461.12 671.88,-467.12"/>
<polyline fill="none" stroke="black" points="671.88,-467.12 671.88,-461.12"/>
<polyline fill="none" stroke="black" points="677.88,-461.12 671.88,-461.12"/>
<text xml:space="preserve" text-anchor="middle" x="644.75" y="-449.82" font-family="Times New Roman,serif" font-size="14.00">Statistics</text>
<text xml:space="preserve" text-anchor="middle" x="644.75" y="-433.32" font-family="Times New Roman,serif" font-size="14.00">Full: 2</text>
<text xml:space="preserve" text-anchor="middle" x="644.75" y="-416.82" font-family="Times New Roman,serif" font-size="14.00">Partial: 4</text>
<text xml:space="preserve" text-anchor="middle" x="644.75" y="-400.32" font-family="Times New Roman,serif" font-size="14.00">None: 19</text>
<text xml:space="preserve" text-anchor="middle" x="644.75" y="-383.82" font-family="Times New Roman,serif" font-size="14.00">Attr: 33</text>
<text xml:space="preserve" text-anchor="middle" x="644.75" y="-367.32" font-family="Times New Roman,serif" font-size="14.00">Total: 58</text>
</g>
</g>
</svg>
