<?xml version="1.0" encoding="UTF-8" standalone="no"?>
<!DOCTYPE svg PUBLIC "-//W3C//DTD SVG 1.1//EN"
 "http://www.w3.org/Graphics/SVG/1.1/DTD/svg11.dtd">
<!-- Generated by graphviz version 14.1.1 (20251213.1925)
 -->
<!-- Title: Dependencies Pages: 1 -->
<svg width="327pt" height="213pt"
 viewBox="0.00 0.00 327.00 213.00" xmlns="http://www.w3.org/2000/svg" xmlns:xlink="http://www.w3.org/1999/xlink">
<g id="graph0" class="graph" transform="scale(1 1) rotate(0) translate(4 208.5)">
<title>Dependencies</title>
<polygon fill="white" stroke="none" points="-4,4 -4,-208.5 322.5,-208.5 322.5,4 -4,4"/>
<text xml:space="preserve" text-anchor="middle" x="159.25" y="-7.2" font-family="Times New Roman,serif" font-size="14.00">simple_env &#45; Dependencies</text>
<!-- simple_env -->
<g id="node1" class="node">
<title>simple_env</title>
<polygon fill="lightblue" stroke="black" points="79,-132.5 0,-132.5 0,-96.5 79,-96.5 79,-132.5"/>
<text xml:space="preserve" text-anchor="middle" x="39.5" y="-109.45" font-family="Times New Roman,serif" font-size="14.00">simple_env</text>
</g>
<!-- simple_testing -->
<g id="node2" class="node">
<title>simple_testing</title>
<polygon fill="lightblue" stroke="black" points="318.5,-204.5 223,-204.5 223,-168.5 318.5,-168.5 318.5,-204.5"/>
<text xml:space="preserve" text-anchor="middle" x="270.75" y="-181.45" font-family="Times New Roman,serif" font-size="14.00">simple_testing</text>
</g>
<!-- simple_env&#45;&gt;simple_testing -->
<g id="edge1" class="edge">
<title>simple_env&#45;&gt;simple_testing</title>
<path fill="none" stroke="black" stroke-dasharray="5,2" d="M79.23,-120.5C135.98,-120.5 233.5,-120.5 233.5,-120.5 233.5,-120.5 233.5,-156.6 233.5,-156.6"/>
<polygon fill="black" stroke="black" points="230,-156.6 233.5,-166.6 237,-156.6 230,-156.6"/>
</g>
<!-- base -->
<g id="node3" class="node">
<title>base</title>
<polygon fill="lightgray" stroke="black" points="297.75,-132.5 243.75,-132.5 243.75,-96.5 297.75,-96.5 297.75,-132.5"/>
<text xml:space="preserve" text-anchor="middle" x="270.75" y="-109.45" font-family="Times New Roman,serif" font-size="14.00">base</text>
</g>
<!-- simple_env&#45;&gt;base -->
<g id="edge2" class="edge">
<title>simple_env&#45;&gt;base</title>
<path fill="none" stroke="black" stroke-dasharray="5,2" d="M79.25,-108.5C79.25,-108.5 231.93,-108.5 231.93,-108.5"/>
<polygon fill="black" stroke="black" points="231.93,-112 241.93,-108.5 231.93,-105 231.93,-112"/>
</g>
<!-- testing -->
<g id="node4" class="node">
<title>testing</title>
<polygon fill="lightgray" stroke="black" points="297.75,-60.5 243.75,-60.5 243.75,-24.5 297.75,-24.5 297.75,-60.5"/>
<text xml:space="preserve" text-anchor="middle" x="270.75" y="-37.45" font-family="Times New Roman,serif" font-size="14.00">testing</text>
</g>
<!-- simple_env&#45;&gt;testing -->
<g id="edge3" class="edge">
<title>simple_env&#45;&gt;testing</title>
<path fill="none" stroke="black" stroke-dasharray="5,2" d="M39.5,-96.33C39.5,-75 39.5,-42.5 39.5,-42.5 39.5,-42.5 231.8,-42.5 231.8,-42.5"/>
<polygon fill="black" stroke="black" points="231.8,-46 241.8,-42.5 231.8,-39 231.8,-46"/>
</g>
</g>
</svg>
